# xmcd
#
# Track frame offsets:
#	150
#	26676
#	41368
#	62317
#	73978
#	95686
#	106571
#	128899
#	141059
#	161572
#	181540
#	199997
#	209266
#	219234
#	234080
#	247763
#	263514
#	273134
#	289821
#	316835
#
# Disc length: 4388 seconds
#
# Revision: 1
# Processed by: cddbd v1.5.2PL0 Copyright (c) Steve Scherf et al.
# Submitted via: EasyCDDAExtractor 16.0.9.1
#
DISCID=0a112214
DTITLE=Rock&Pop - Blues 3
DYEAR=1900
DGENRE=Blues
TTITLE0=Eric Bell - Baby please don't go
TTITLE1=Steel Blues - Born under a bad sign
TTITLE2=Albert King and John Lee Hooker - King snake
TTITLE3=Ike and Tina Turner - Poor fool
TTITLE4=John Lee Hooker - One room country shack
TTITLE5=Muddy waters - Key to the highway
TTITLE6=Albert King - Angel of mercy
TTITLE7=Big Joe Williams - Ride in my new car
TTITLE8=The Clifton Chenier Band - Hush hush
TTITLE9=Aretha Franklin - There is a fountain
TTITLE10=Bo Wilson Band - Chevrolet
TTITLE11=Canned Heat - Big road blues
TTITLE12=Irma Thomas - Wish someone would care
TTITLE13=Jimmi Hendrix - Keep a knockin'
TTITLE14=Chuck Berry - In the wee wee hours
TTITLE15=B. B. King - The letter
TTITLE16=Koko Taylor - Love you like a woman
TTITLE17=Jelly Roll Morton - Dead Man Blues
TTITLE18=Luther Allison - Early in the morning
TTITLE19=Eric Clapton - Good morning little school girl
EXTD=
EXTT0=
EXTT1=
EXTT2=
EXTT3=
EXTT4=
EXTT5=
EXTT6=
EXTT7=
EXTT8=
EXTT9=
EXTT10=
EXTT11=
EXTT12=
EXTT13=
EXTT14=
EXTT15=
EXTT16=
EXTT17=
EXTT18=
EXTT19=
PLAYORDER=
